<svg width="329" height="329" viewBox="0 0 329 329" fill="none" xmlns="http://www.w3.org/2000/svg">
<path fill-rule="evenodd" clip-rule="evenodd" d="M328.37 179H247.681C240.596 218.79 205.826 249 164 249C122.174 249 87.404 218.79 80.3193 179H0.63028C7.97155 263.06 78.5352 329 164.5 329C250.465 329 321.028 263.06 328.37 179ZM328.37 150H247.853C241.177 109.717 206.176 79 164 79C121.824 79 86.8231 109.717 80.1475 150H0.63028C7.97155 65.9404 78.5352 0 164.5 0C250.465 0 321.028 65.9404 328.37 150Z" fill="#C4C4C4"/>
<circle cx="164" cy="164" r="48" fill="#C4C4C4"/>
</svg>
